<?xml version="1.0" encoding="utf-8"?>
<!-- Generator: Adobe Illustrator 21.0.0, SVG Export Plug-In . SVG Version: 6.00 Build 0)  -->
<svg version="1.1" id="Layer_1" xmlns:svg="http://www.w3.org/2000/svg"
	 xmlns="http://www.w3.org/2000/svg" xmlns:xlink="http://www.w3.org/1999/xlink" x="0px" y="0px" width="339px" height="81px"
	 viewBox="0 0 339 81" style="enable-background:new 0 0 339 81;" xml:space="preserve">
<style type="text/css">
	.st0{fill:#1B1464;}
	.st1{opacity:0.38;fill:#565656;enable-background:new    ;}
	.st2{fill:#3A3284;}
	.st3{fill:#D4145A;}
</style>
<path class="st0" d="M136.8,23.2h-2v-3.4c-0.1-0.4-0.3-0.8-0.7-1.3c-0.3-0.5-0.7-1-1.2-1.5s-1-1-1.6-1.5s-1.2-0.9-1.8-1.3
	c-0.6-0.4-1.2-0.7-1.8-0.9c-0.6-0.2-1.1-0.3-1.6-0.3c-0.1,0-0.2,0-0.3,0c-0.1,0-0.2,0-0.2,0.1l-1.3-2.1c3.2-2.4,6.6-4.2,10.3-5.3
	V4.1h-12.2v-2h16.9V4h-2.7v19.2H136.8z M134.9,7.6c-0.3,0.1-0.6,0.2-1,0.3c-0.4,0.2-0.9,0.3-1.3,0.6c-0.5,0.2-1,0.5-1.5,0.7
	c-0.5,0.3-1,0.5-1.5,0.8s-0.9,0.5-1.2,0.7c-0.4,0.2-0.6,0.4-0.8,0.6c0.3,0,0.7,0.1,1.2,0.3s0.9,0.4,1.4,0.7s1,0.6,1.5,1
	s1,0.7,1.4,1.1c0.4,0.4,0.8,0.8,1.1,1.1c0.3,0.4,0.6,0.7,0.7,1L134.9,7.6L134.9,7.6z"/>
<path class="st0" d="M149.8,18.6c0.8,0.3,1.4,0.5,2,0.8c0.5,0.3,1.1,0.5,1.5,0.8c0.5,0.3,0.9,0.5,1.3,0.8c0.4,0.3,0.8,0.6,1.2,1
	s0.9,0.8,1.3,1.2c0.5,0.5,1.1,1,1.7,1.6l-1.3,1.4c-0.8-0.9-1.7-1.8-2.8-2.6c-1.1-0.8-2.2-1.6-3.5-2.2s-2.5-1.1-3.8-1.5
	s-2.6-0.5-4-0.5v-1.9h2.7c1,0,2-0.1,2.9-0.4s1.8-0.7,2.5-1.2c0.7-0.5,1.3-1.1,1.7-1.7c0.4-0.7,0.6-1.3,0.6-2c0-0.4,0-0.8-0.1-1
	c-0.1-0.3-0.2-0.5-0.4-0.7s-0.4-0.4-0.7-0.5s-0.7-0.3-1.2-0.4l-0.8-0.1c-0.1,0.7-0.3,1.4-0.6,2.1s-0.8,1.3-1.3,1.9
	c-0.5,0.6-1.1,1-1.7,1.4c-0.7,0.3-1.3,0.5-2,0.5c-0.4,0-0.7-0.1-1.1-0.2c-0.3-0.1-0.7-0.3-0.9-0.6c-0.3-0.3-0.5-0.5-0.7-0.8
	s-0.3-0.6-0.3-0.9V4.1h-2.9v-2h18.4V4h-13.6v0.8c0.3,0.5,0.7,0.9,1,1.3c0.4,0.3,0.7,0.6,1.2,0.8c0.3,0,0.6,0.1,1,0.1
	c0.4,0.1,0.9,0.1,1.3,0.2c0.5,0.1,0.9,0.1,1.3,0.2c0.4,0.1,0.8,0.1,1.2,0.1c0.1,0,0.2,0,0.3,0s0.2,0,0.3,0c0.6,0,1.1,0.1,1.6,0.4
	c0.5,0.3,0.9,0.6,1.3,1.1c0.4,0.5,0.7,1,0.9,1.6s0.3,1.2,0.3,1.9c0,0.6-0.2,1.3-0.5,1.9c-0.3,0.6-0.8,1.2-1.3,1.7
	c-0.6,0.6-1.2,1-1.9,1.5C151.4,17.9,150.7,18.3,149.8,18.6z M144.1,12.3c0.2,0.3,0.3,0.5,0.5,0.6s0.4,0.2,0.6,0.2
	c0.4,0,0.7-0.1,1.2-0.4c0.4-0.3,0.8-0.6,1.2-1s0.7-0.8,0.9-1.2c0.3-0.4,0.4-0.8,0.4-1.2s-0.2-0.6-0.6-0.6h-1.1c-1.2,0-2.3-0.5-3-1.4
	L144.1,12.3L144.1,12.3z"/>
<path class="st0" d="M168.9,21c-0.4,0.8-0.9,1.3-1.4,1.7c-0.6,0.3-1.3,0.5-2.1,0.5c-1.1,0-2-0.3-2.8-0.8s-1.5-1.2-2-2.1
	s-0.9-1.8-1.2-2.9s-0.4-2.2-0.4-3.2c0-0.9,0.1-1.8,0.4-2.8c0.2-1,0.6-1.9,1-2.9c0.4-0.9,1-1.8,1.7-2.5c0.7-0.8,1.4-1.4,2.2-1.9h-8.5
	v-2h12.9V4c-1.3,0.4-2.4,0.9-3.3,1.6c-1,0.7-1.8,1.6-2.4,2.5c-0.7,1-1.1,2-1.5,3.2c-0.3,1.2-0.5,2.4-0.5,3.7c0,0.4,0.1,0.9,0.2,1.3
	c0.1,0.5,0.2,1,0.4,1.4c0.2,0.5,0.4,0.9,0.7,1.3s0.5,0.8,0.8,1.1c0.3,0.3,0.6,0.6,1,0.8c0.3,0.2,0.7,0.3,1,0.3s0.5,0,0.7-0.1
	c0.2,0,0.4-0.1,0.5-0.2c0.2-0.1,0.3-0.2,0.5-0.4c0.2-0.2,0.4-0.4,0.6-0.7C167.8,20.2,168.3,20.6,168.9,21z"/>
<path class="st0" d="M181,23.2h-2v-3.4c-0.1-0.4-0.3-0.8-0.7-1.3c-0.3-0.5-0.7-1-1.2-1.5s-1-1-1.6-1.5s-1.2-0.9-1.8-1.3
	c-0.6-0.4-1.2-0.7-1.8-0.9s-1.1-0.3-1.6-0.3c-0.1,0-0.2,0-0.3,0s-0.2,0-0.2,0.1l-1.3-2.1c3.2-2.4,6.6-4.2,10.3-5.3V4.1h-12.2v-2
	h16.9V4H181V23.2z M179,7.6c-0.3,0.1-0.6,0.2-1,0.3c-0.4,0.2-0.9,0.3-1.3,0.6c-0.5,0.2-1,0.5-1.5,0.7c-0.5,0.3-1,0.5-1.5,0.8
	s-0.9,0.5-1.2,0.7c-0.4,0.2-0.6,0.4-0.8,0.6c0.3,0,0.7,0.1,1.2,0.3s0.9,0.4,1.4,0.7s1,0.6,1.5,1s1,0.7,1.4,1.1
	c0.4,0.4,0.8,0.8,1.1,1.1c0.3,0.4,0.6,0.7,0.7,1L179,7.6L179,7.6z M173.9,17.5c0.6,0,1.1,0.2,1.5,0.6s0.6,0.9,0.6,1.5
	s-0.2,1.1-0.6,1.5c-0.4,0.4-0.9,0.6-1.5,0.6s-1.1-0.2-1.5-0.6s-0.6-0.9-0.6-1.5s0.2-1.1,0.6-1.5S173.3,17.5,173.9,17.5z"/>
<g>
	<path class="st0" d="M160.1,23.8v3.1h3.2v1.9h-3.2v27h-1.9V36.1c0-0.1,0-0.2-0.1-0.4s-0.2-0.5-0.4-0.7c-0.1-0.3-0.3-0.6-0.5-0.9
		c-0.2-0.3-0.3-0.6-0.5-0.9c-0.2-0.3-0.3-0.5-0.4-0.7c-0.1-0.2-0.2-0.3-0.3-0.3c-0.7,0.7-1.6,1.7-2.8,2.9s-2.6,2.7-4.3,4.3l-1.3-1.3
		c0.9-1,1.4-1.9,1.4-2.7c0-0.3,0-0.6-0.1-0.9c-0.1-0.3-0.2-0.5-0.4-0.8c-0.2-0.2-0.4-0.4-0.6-0.5c-0.2-0.1-0.5-0.2-0.8-0.2
		c-0.1,0-0.7,0.1-1.8,0.3L144,32c0.1-0.6,0.4-1.2,0.9-1.8c0.4-0.6,1-1.1,1.6-1.6s1.3-0.8,2-1.1c0.7-0.3,1.4-0.4,2.1-0.4
		c3.3,0,5.9,1.6,7.7,4.9v-8.4h1.8V23.8z M154.8,30.7c-0.5-0.4-0.9-0.7-1.3-0.9c-0.4-0.2-0.8-0.4-1.1-0.4c-0.3-0.1-0.6-0.1-0.8-0.2
		c-0.2,0-0.5,0-0.6,0c-0.3,0-0.6,0-1,0.1s-0.8,0.2-1.2,0.4c-0.4,0.2-0.8,0.4-1.2,0.7c-0.4,0.3-0.7,0.6-1,1c0.6,0,1.1,0.1,1.5,0.2
		s0.8,0.3,1.1,0.6s0.6,0.6,0.8,1.1s0.4,1.1,0.6,1.8c0.6-0.6,1.2-1.2,1.9-1.9C153.2,32.4,154,31.6,154.8,30.7z"/>
	<path class="st0" d="M167.5,29.1v8.8c1.3-1.7,2.7-3,4.3-3.9c1.5-0.9,3.3-1.5,5.2-1.7l1.7,1.2c-0.6,1.1-1.1,2.3-1.3,3.7
		c-0.3,1.3-0.4,2.7-0.4,4.1c0,1.1,0.1,2.2,0.2,3.4c0.1,1.1,0.3,2.2,0.6,3.2l-1.8,0.3c-0.3-1-0.6-2-0.7-3.2c-0.1-1.1-0.2-2.3-0.2-3.4
		c0-1.2,0.1-2.5,0.3-3.7s0.4-2.4,0.8-3.5c-1.6,0.2-3.2,0.9-4.5,2.1c-1.4,1.2-2.7,2.8-4,4.8l-1.9-1.5v-11h-3v-1.9h17.3v1.9h-12.6
		V29.1z"/>
	<path class="st0" d="M177.6,26.9h2.7c0.2,0.1,0.4,0.2,0.5,0.3c0.2,0.1,0.3,0.3,0.5,0.4c0.2,0.2,0.3,0.3,0.5,0.6
		c0.2,0.2,0.4,0.5,0.7,0.8v-5.2h1.9v3.1h3.4v1.9h-3.4v50.6h-1.9V31.6c-0.3-0.7-0.6-1.3-1.1-1.7c-0.5-0.5-1-0.8-1.7-1h-2.1
		L177.6,26.9L177.6,26.9z"/>
	<path class="st0" d="M204.6,23.8v3.1h3.2v1.9h-3.2v29.1h-1.9V36.1c0-0.1,0-0.2-0.1-0.4s-0.2-0.5-0.4-0.7c-0.1-0.3-0.3-0.6-0.5-0.9
		c-0.2-0.3-0.3-0.6-0.5-0.9c-0.2-0.3-0.3-0.5-0.4-0.7c-0.1-0.2-0.2-0.3-0.3-0.3c-0.7,0.7-1.6,1.7-2.8,2.9s-2.6,2.7-4.3,4.3l-1.3-1.3
		c0.9-1,1.4-1.9,1.4-2.7c0-0.3,0-0.6-0.1-0.9c-0.1-0.3-0.2-0.5-0.4-0.8c-0.2-0.2-0.4-0.4-0.6-0.5c-0.2-0.1-0.5-0.2-0.8-0.2
		c-0.1,0-0.7,0.1-1.8,0.3l-1.3-1.3c0.1-0.6,0.4-1.2,0.9-1.8c0.4-0.6,1-1.1,1.6-1.6s1.3-0.8,2-1.1c0.7-0.3,1.4-0.4,2.1-0.4
		c3.3,0,5.9,1.6,7.7,4.9v-8.4h1.8V23.8z M199.3,30.7c-0.5-0.4-0.9-0.7-1.3-0.9c-0.4-0.2-0.8-0.4-1.1-0.4c-0.3-0.1-0.6-0.1-0.8-0.2
		c-0.2,0-0.5,0-0.6,0c-0.3,0-0.6,0-1,0.1s-0.8,0.2-1.2,0.4c-0.4,0.2-0.8,0.4-1.2,0.7c-0.4,0.3-0.7,0.6-1,1c0.6,0,1.1,0.1,1.5,0.2
		s0.8,0.3,1.1,0.6s0.6,0.6,0.8,1.1s0.4,1.1,0.6,1.8c0.6-0.6,1.2-1.2,1.9-1.9C197.7,32.4,198.4,31.6,199.3,30.7z"/>
	<path class="st0" d="M199.6,26.6l-1-1.5l11.7-7.9h-0.1L199.6,26.6z"/>
	<path class="st0" d="M214.4,38.3c-0.1,0-0.1,0-0.2,0c-0.1,0-0.2,0-0.3,0c-0.5,0-1.1-0.2-1.6-0.5s-1-0.8-1.3-1.3
		c-0.4-0.5-0.7-1.1-0.9-1.7c-0.2-0.6-0.3-1.2-0.3-1.7c0-0.7,0.1-1.5,0.4-2.2c0.3-0.7,0.7-1.4,1.1-2c0.5-0.6,1.1-1.1,1.7-1.4
		c0.7-0.4,1.4-0.6,2.2-0.6c1.2,0,2.2,0.3,3.1,1c0.9,0.6,1.7,1.6,2.4,2.9v-7h2v3.1h3.6v1.9h-3.6v37.5h-2V35c0-0.4-0.1-0.8-0.2-1.2
		c-0.1-0.4-0.3-0.9-0.6-1.3c-0.3-0.5-0.5-0.9-0.9-1.3c-0.3-0.4-0.6-0.8-1-1.1c-0.3-0.3-0.7-0.6-1.1-0.8c-0.4-0.2-0.7-0.3-1-0.3
		c-0.7,0-1.2,0.1-1.8,0.3c-0.5,0.2-1,0.5-1.4,0.8c-0.4,0.4-0.7,0.8-0.9,1.3s-0.3,1.1-0.3,1.8c0,0.4,0.1,0.7,0.2,1.1
		c0.1,0.4,0.3,0.8,0.6,1.1s0.5,0.6,0.9,0.9c0.3,0.2,0.7,0.4,1,0.4c0.2,0,0.5-0.1,0.7-0.2L214.4,38.3z"/>
</g>
<path class="st1" d="M94.9,46.3c-10.7,0-19.4-7.6-19.4-17s8.7-17,19.4-17s19.4,7.6,19.4,17S105.6,46.3,94.9,46.3z M94.9,13.6
	c-10,0-18.1,7.1-18.1,15.8s8.1,15.8,18.1,15.8S113,38.1,113,29.4S104.9,13.6,94.9,13.6z"/>
<path class="st1" d="M94.9,79.1c-10.7,0-19.4-7.6-19.4-17s8.7-17,19.4-17s19.4,7.6,19.4,17S105.6,79.1,94.9,79.1z M94.9,46.3
	c-10,0-18.1,7.1-18.1,15.8s8.1,15.8,18.1,15.8S113,70.8,113,62.1S104.9,46.3,94.9,46.3z"/>
<path class="st1" d="M75.9,45.1c-0.2-8.7-3.9-16.7-10.5-22.7C57.2,14.9,46.5,11,35.1,11.2c-1,0-2,0.1-3.1,0.2v1.3
	c1-0.1,2.1-0.2,3.1-0.2c11-0.2,21.4,3.6,29.3,10.8c6.3,5.8,9.9,13.5,10.1,21.8s-3,16.2-9.1,22.2c-9.9,9.9-26.5,10.2-36.8,0.8
	c-4-3.6-6.3-8.5-6.4-13.8s1.9-10.3,5.7-14.1c3-3,7.1-4.7,11.5-4.8s8.6,1.4,11.7,4.3c0.9,0.8,1.6,1.7,2.2,2.6h1.5
	c-0.7-1.3-1.7-2.5-2.8-3.6c-3.4-3.1-7.9-4.8-12.7-4.7c-4.7,0.1-9.2,2-12.4,5.2c-4.1,4.1-6.2,9.4-6.1,15c0.1,5.6,2.6,10.8,6.8,14.7
	c5.3,4.8,12.1,7.2,18.9,7.2c7.2,0,14.4-2.7,19.8-8.1C72.7,62,76.1,53.8,75.9,45.1z"/>
<path class="st2" d="M94.9,40.5c-10.7,0-19.4-9-19.4-20s8.7-20,19.4-20s19.4,9,19.4,20S105.6,40.5,94.9,40.5z M94.9,1.9
	c-10,0-18.1,8.3-18.1,18.6s8.1,18.6,18.1,18.6S113,30.8,113,20.5S104.9,1.9,94.9,1.9z"/>
<path class="st3" d="M94.9,79.1c-10.7,0-19.4-9-19.4-20s8.7-20,19.4-20s19.4,9,19.4,20S105.6,79.1,94.9,79.1z M94.9,40.5
	c-10,0-18.1,8.3-18.1,18.6c0,10.2,8.1,18.6,18.1,18.6S113,69.3,113,59.1C113,48.8,104.9,40.5,94.9,40.5z"/>
<path class="st3" d="M75.9,42.3c-0.2-9.4-3.9-18.1-10.5-24.6c-8.2-8-19-12.3-30.3-12.1c-1,0-2,0.1-3.1,0.2v1.4C33,7.1,34.1,7,35.1,7
	c11-0.3,21.4,3.9,29.3,11.7c6.3,6.2,9.9,14.6,10.1,23.6s-3,17.6-9.1,24.1C55.5,77.1,39,77.5,28.6,67.3c-4-3.9-6.3-9.2-6.4-14.9
	c-0.1-5.7,1.9-11.1,5.7-15.2c3-3.3,7.1-5.1,11.5-5.2c4.4-0.1,8.6,1.6,11.7,4.7c0.9,0.9,1.6,1.8,2.2,2.9h1.5
	c-0.7-1.4-1.7-2.7-2.8-3.9c-3.4-3.4-7.9-5.2-12.7-5.1c-4.7,0.1-9.2,2.1-12.4,5.7c-4.1,4.4-6.2,10.1-6.1,16.2
	c0.1,6.1,2.6,11.7,6.8,15.9c5.3,5.2,12.1,7.8,18.9,7.8c7.2,0,14.4-2.9,19.8-8.7C72.7,60.6,76.1,51.7,75.9,42.3z"/>
</svg>
