<?xml version="1.0" encoding="utf-8"?>
<!-- Generator: Adobe Illustrator 21.0.0, SVG Export Plug-In . SVG Version: 6.00 Build 0)  -->
<svg version="1.1" id="Capa_1" xmlns="http://www.w3.org/2000/svg" xmlns:xlink="http://www.w3.org/1999/xlink" x="0px" y="0px"
	 viewBox="0 0 564.2 564.2" style="enable-background:new 0 0 564.2 564.2;" xml:space="preserve">
<style type="text/css">
	.st0{fill:#555555;}
</style>
<g>
	<g id="award">
		<path class="st0" d="M89.9,522.1l74.6-32.5l32.5,74.6l76.5-200.8c-40.2-1.9-78.4-15.3-107.1-38.3L89.9,522.1z"/>
		<path class="st0" d="M397.8,325.1c-30.6,23-66.9,36.3-107.1,38.3l76.5,200.8l32.5-74.6l74.6,32.5L397.8,325.1z"/>
		<path class="st0" d="M453.3,172.1C453.3,76.5,376.8,0,281.1,0S109,76.5,109,172.1s76.5,172.1,172.1,172.1S453.3,267.8,453.3,172.1
			z M348.1,267.8l-66.9-44l-66.9,44l28.7-76.5L185.5,153h66.9l28.7-76.5l28.7,76.5h66.9l-57.4,38.3L348.1,267.8z"/>
	</g>
</g>
</svg>
